<svg id="b5e30148-0653-410e-98e4-eb54bedfbb0a" data-name="Слой 1" xmlns="http://www.w3.org/2000/svg" width="32" height="32" viewBox="0 0 32 32"><defs><style>.b181d2af-e741-4d01-8220-49542c50dde3{fill:#21993b;}.bb0efb8a-1aa2-490f-9821-3a56d8f08644{fill:#fff;}</style></defs><circle class="b181d2af-e741-4d01-8220-49542c50dde3" cx="16" cy="16" r="15"/><path class="bb0efb8a-1aa2-490f-9821-3a56d8f08644" d="M22.2,12l-3.43,7.7a1.1,1.1,0,0,1-1.55.52h0a1.1,1.1,0,0,1-.46-1.41l3.54-8H16.81A1.94,1.94,0,0,0,15,12l-3.43,7.7a1.1,1.1,0,0,1-1.55.52h0a1.1,1.1,0,0,1-.46-1.41l3.54-8H6.41a.49.49,0,0,0-.4.2.48.48,0,0,0,.16.69l1.06.6a.5.5,0,0,1,.21.65L5.87,16.53A2.77,2.77,0,0,0,7,20.08L11.7,22.7a2.78,2.78,0,0,0,3.9-1.3l.19-.43,3.07,1.73a2.78,2.78,0,0,0,3.9-1.3l4.7-10.55H24A1.94,1.94,0,0,0,22.2,12Z"/></svg>
